<svg xmlns="http://www.w3.org/2000/svg" viewBox="0 0 1920 1080"><defs><style>.cls-1{opacity:0.05;}.cls-2{fill:#4b4b4b;}.cls-2,.cls-3{stroke:#4b4b4b;stroke-miterlimit:10;}.cls-3{fill:none;}</style></defs><g id="katman_2" data-name="katman 2" class="cls-1"><path class="cls-2" d="M364.56,246.57a23.29,23.29,0,1,0,32.92.92A23.29,23.29,0,0,0,364.56,246.57Zm24.78,26.11a13,13,0,1,1,.52-18.38A13,13,0,0,1,389.34,272.68Z"/><path class="cls-2" d="M439.52,289.65a23.29,23.29,0,1,0,32.92.93A23.3,23.3,0,0,0,439.52,289.65Zm24.78,26.11a13,13,0,1,1,.52-18.38A13,13,0,0,1,464.3,315.76Z"/><path class="cls-2" d="M430,352.34a23.31,23.31,0,1,0,13.28-6.2A23.3,23.3,0,0,0,430,352.34Zm24.79,26.11a13,13,0,1,1,.52-18.38A13,13,0,0,1,454.76,378.45Z"/><polygon class="cls-2" points="444.93 327.33 455.6 329.86 451.94 346.76 443.25 346.14 444.93 327.33"/><polygon class="cls-2" points="433.53 298.89 397.71 279.33 403.55 267.17 443.69 286.52 433.53 298.89"/><path class="cls-2" d="M387.84,136a23.31,23.31,0,1,0,13.28-6.2A23.3,23.3,0,0,0,387.84,136Zm24.79,26.11a13,13,0,1,1,.52-18.38A13,13,0,0,1,412.63,162.08Z"/><path class="cls-2" d="M470.84,109.11a23.27,23.27,0,1,0,13.27-6.21A23.29,23.29,0,0,0,470.84,109.11Zm24.78,26.11a13,13,0,1,1,.52-18.38A13,13,0,0,1,495.62,135.22Z"/><path class="cls-2" d="M507.65,172.8a23.27,23.27,0,1,0,13.27-6.21A23.29,23.29,0,0,0,507.65,172.8Zm24.78,26.11a13,13,0,1,1,.52-18.38A13,13,0,0,1,532.43,198.91Z"/><path class="cls-2" d="M592.94,193.08a23.29,23.29,0,1,0,13.28-6.21A23.29,23.29,0,0,0,592.94,193.08Zm24.79,26.1a13,13,0,1,1,.52-18.38A13,13,0,0,1,617.73,219.18Z"/><polygon class="cls-2" points="544.64 199.81 585.66 209.26 591.02 195.13 546.79 187.14 544.64 199.81"/><polygon class="cls-2" points="516.8 167.47 504 141.86 495.38 147.7 509.95 170.62 516.8 167.47"/><polygon class="cls-2" points="427.01 150.54 466.21 138.12 463.83 122.45 422.75 139 427.01 150.54"/><path class="cls-2" d="M230.72,390.16A23.29,23.29,0,1,0,244,384,23.29,23.29,0,0,0,230.72,390.16Zm24.79,26.1a13,13,0,1,1,.52-18.37A13,13,0,0,1,255.51,416.26Z"/><path class="cls-2" d="M312.77,415.81a23.28,23.28,0,1,0,13.28-6.21A23.29,23.29,0,0,0,312.77,415.81Zm24.78,26.1a13,13,0,1,1,.52-18.37A13,13,0,0,1,337.55,441.91Z"/><path class="cls-2" d="M315.27,502.89a23.28,23.28,0,1,0,13.28-6.21A23.29,23.29,0,0,0,315.27,502.89ZM340.06,529a13,13,0,1,1,.51-18.37A13,13,0,0,1,340.06,529Z"/><path class="cls-2" d="M401.89,466.42a23.28,23.28,0,1,0,13.28-6.21A23.16,23.16,0,0,0,401.89,466.42Zm24.79,26.1a13,13,0,1,1,.51-18.38A13,13,0,0,1,426.68,492.52Z"/><polygon class="cls-2" points="348.19 503.81 394.71 481.1 399.25 497.31 354.28 516.26 348.19 503.81"/><polygon class="cls-2" points="341.17 498.73 333.68 455.5 323.31 455.37 328.55 496.68 341.17 498.73"/><polygon class="cls-2" points="305.54 431.11 266.85 418.8 269.99 406.2 312.77 415.81 305.54 431.11"/><path class="cls-2" d="M238.48,14a23.27,23.27,0,1,0,13.28-6.21A23.16,23.16,0,0,0,238.48,14Zm24.79,26.11a13,13,0,1,1,.51-18.38A13,13,0,0,1,263.27,40.11Z"/><path class="cls-2" d="M294.27,42.45a23.27,23.27,0,1,0,13.28-6.21A23.16,23.16,0,0,0,294.27,42.45Zm24.79,26.11a13,13,0,1,1,.51-18.38A13,13,0,0,1,319.06,68.56Z"/><path class="cls-2" d="M277.3,117.66a23.3,23.3,0,1,0,13.28-6.2A23.21,23.21,0,0,0,277.3,117.66Zm24.79,26.11a13,13,0,1,1,.51-18.38A13,13,0,0,1,302.09,143.77Z"/><polygon class="cls-2" points="312.2 82.58 304.02 113.92 295.69 111.42 301.93 81.13 312.2 82.58"/><polygon class="cls-2" points="287.57 54.17 272.81 45.29 277.63 33.44 296.61 40.51 287.57 54.17"/><path class="cls-2" d="M61.14,336.58a23.31,23.31,0,1,0,13.28-6.2A23.23,23.23,0,0,0,61.14,336.58Zm24.79,26.11a13,13,0,1,1,.52-18.38A13,13,0,0,1,85.93,362.69Z"/><path class="cls-2" d="M144.28,373.58a23.3,23.3,0,1,0,13.28-6.2A23.18,23.18,0,0,0,144.28,373.58Zm24.79,26.11a13,13,0,1,1,.52-18.38A13,13,0,0,1,169.07,399.69Z"/><path class="cls-2" d="M133,446.13a23.29,23.29,0,1,0,13.28-6.21A23.21,23.21,0,0,0,133,446.13Zm24.79,26.1a13,13,0,1,1,.52-18.37A13,13,0,0,1,157.83,472.23Z"/><polygon class="cls-2" points="152.52 412.47 149.57 439.78 159.29 442.13 163.44 413.58 152.52 412.47"/><polygon class="cls-2" points="137.42 386.05 95.61 367.7 100.34 355.57 145.48 372.52 137.42 386.05"/><circle class="cls-3" cx="67.22" cy="123.32" r="13"/><path class="cls-2" d="M51.36,106.66a23.29,23.29,0,1,0,32.92.92A23.29,23.29,0,0,0,51.36,106.66Zm24.79,26.1a13,13,0,1,1,.52-18.37A13,13,0,0,1,76.15,132.76Z"/><circle class="cls-3" cx="67.22" cy="123.32" r="13"/><circle class="cls-3" cx="153.81" cy="134.23" r="13"/><path class="cls-2" d="M138,117.57a23.29,23.29,0,1,0,32.92.93A23.3,23.3,0,0,0,138,117.57Zm24.78,26.11a13,13,0,1,1,.52-18.38A13,13,0,0,1,162.74,143.68Z"/><circle class="cls-3" cx="153.81" cy="134.23" r="13"/><circle class="cls-3" cx="174.63" cy="236.57" r="13"/><path class="cls-2" d="M158.77,219.91a23.29,23.29,0,1,0,32.93.92A23.29,23.29,0,0,0,158.77,219.91ZM183.56,246a13,13,0,1,1,.52-18.37A13,13,0,0,1,183.56,246Z"/><circle class="cls-3" cx="174.63" cy="236.57" r="13"/><circle class="cls-3" cx="256.82" cy="200.66" r="13"/><path class="cls-2" d="M241,184a23.29,23.29,0,1,0,32.93.93A23.29,23.29,0,0,0,241,184Zm24.79,26.11a13,13,0,1,1,.52-18.38A13,13,0,0,1,265.75,210.11Z"/><circle class="cls-3" cx="256.82" cy="200.66" r="13"/><polygon class="cls-2" points="89.2 131.68 130.75 136.48 134.04 121.27 90.14 118.71 89.2 131.68"/><polygon class="cls-2" points="151.71 157.67 162.54 217.01 171.04 213.84 162.41 156.2 151.71 157.67"/><polygon class="cls-2" points="191.69 220.83 233.8 198.52 238.51 215.14 197.68 232.66 191.69 220.83"/><path class="cls-2" d="M859.26,502.09A23.29,23.29,0,1,0,888.52,487,23.29,23.29,0,0,0,859.26,502.09Zm34.33,10.85a13,13,0,1,1-8.44-16.33A13,13,0,0,1,893.59,512.94Z"/><path class="cls-2" d="M945.71,503.52A23.29,23.29,0,1,0,975,488.39,23.3,23.3,0,0,0,945.71,503.52ZM980,514.37A13,13,0,1,1,971.59,498,13,13,0,0,1,980,514.37Z"/><path class="cls-2" d="M967.7,563a23.28,23.28,0,1,0,8.61-11.86A23.29,23.29,0,0,0,967.7,563ZM1002,573.84a13,13,0,1,1-8.44-16.33A13,13,0,0,1,1002,573.84Z"/><polygon class="cls-2" points="968.68 533.87 979.25 530.92 984.22 547.48 976.31 551.14 968.68 533.87"/><polygon class="cls-2" points="944.95 514.5 904.13 514.72 903.35 501.25 947.84 498.76 944.95 514.5"/><path class="cls-2" d="M826.12,394a23.28,23.28,0,1,0,8.62-11.86A23.29,23.29,0,0,0,826.12,394Zm34.32,10.85A13,13,0,1,1,852,388.56,13,13,0,0,1,860.44,404.89Z"/><path class="cls-2" d="M885.74,330.37a23.28,23.28,0,1,0,8.62-11.86A23.29,23.29,0,0,0,885.74,330.37Zm34.33,10.85a13,13,0,1,1-8.44-16.33A13,13,0,0,1,920.07,341.22Z"/><path class="cls-2" d="M948.78,368.29a23.28,23.28,0,1,0,8.62-11.86A23.3,23.3,0,0,0,948.78,368.29Zm34.32,10.85a13,13,0,1,1-8.44-16.33A13,13,0,0,1,983.1,379.14Z"/><path class="cls-2" d="M1033.23,344.75a23.3,23.3,0,1,0,8.62-11.85A23.29,23.29,0,0,0,1033.23,344.75Zm34.33,10.85a13,13,0,1,1-8.44-16.33A13,13,0,0,1,1067.56,355.6Z"/><polygon class="cls-2" points="994.22 374.02 1034.7 362.44 1032.55 347.48 989.97 361.89 994.22 374.02"/><polygon class="cls-2" points="954.2 359.19 930.61 342.98 925.9 352.26 949.74 365.27 954.2 359.19"/><polygon class="cls-2" points="867.44 387.83 895.73 357.99 886.07 345.44 858.13 379.79 867.44 387.83"/><path class="cls-2" d="M811.64,692.52a23.28,23.28,0,1,0,8.61-11.86A23.29,23.29,0,0,0,811.64,692.52ZM846,703.36A13,13,0,1,1,837.52,687,13,13,0,0,1,846,703.36Z"/><path class="cls-2" d="M895.85,675.26a23.28,23.28,0,1,0,8.61-11.86A23.29,23.29,0,0,0,895.85,675.26Zm34.32,10.85a13,13,0,1,1-8.44-16.34A13,13,0,0,1,930.17,686.11Z"/><path class="cls-2" d="M940.18,750.25a23.3,23.3,0,1,0,8.62-11.86A23.3,23.3,0,0,0,940.18,750.25Zm34.33,10.85a13,13,0,1,1-8.45-16.34A13,13,0,0,1,974.51,761.1Z"/><path class="cls-2" d="M998.33,676.41a23.28,23.28,0,1,0,8.62-11.86A23.18,23.18,0,0,0,998.33,676.41Zm34.32,10.85a13,13,0,1,1-8.44-16.33A13,13,0,0,1,1032.65,687.26Z"/><polygon class="cls-2" points="969.44 735.12 999.15 692.73 1010.97 704.72 980.79 743.07 969.44 735.12"/><polygon class="cls-2" points="960.83 734.08 933.36 699.87 924.23 704.78 948.8 738.39 960.83 734.08"/><polygon class="cls-2" points="896.92 692.14 857.11 700.1 853.76 687.55 895.85 675.26 896.92 692.14"/><path class="cls-2" d="M636.38,359.59A23.28,23.28,0,1,0,645,347.73,23.18,23.18,0,0,0,636.38,359.59Zm34.33,10.85a13,13,0,1,1-8.45-16.33A13,13,0,0,1,670.71,370.44Z"/><path class="cls-2" d="M699,357.49a23.3,23.3,0,1,0,8.62-11.86A23.19,23.19,0,0,0,699,357.49Zm34.33,10.85A13,13,0,1,1,724.85,352,13,13,0,0,1,733.3,368.34Z"/><path class="cls-2" d="M720.52,431.52a23.3,23.3,0,1,0,8.62-11.86A23.19,23.19,0,0,0,720.52,431.52Zm34.33,10.85A13,13,0,1,1,746.4,426,13,13,0,0,1,754.85,442.37Z"/><polygon class="cls-2" points="734.08 383.92 742.09 415.31 733.59 417.16 724.39 387.62 734.08 383.92"/><polygon class="cls-2" points="698.78 370.98 681.57 370.36 680.05 357.66 700.08 354.66 698.78 370.98"/><path class="cls-2" d="M637.31,727.7a23.3,23.3,0,1,0,8.62-11.85A23.18,23.18,0,0,0,637.31,727.7Zm34.33,10.85a13,13,0,1,1-8.45-16.33A13,13,0,0,1,671.64,738.55Z"/><path class="cls-2" d="M728,719.85A23.3,23.3,0,1,0,736.59,708,23.19,23.19,0,0,0,728,719.85Zm34.33,10.84a13,13,0,1,1-8.45-16.33A13,13,0,0,1,762.3,730.69Z"/><path class="cls-2" d="M753.25,788.77a23.28,23.28,0,1,0,8.61-11.86A23.19,23.19,0,0,0,753.25,788.77Zm34.32,10.85a13,13,0,1,1-8.44-16.34A13,13,0,0,1,787.57,799.62Z"/><polygon class="cls-2" points="754 749.88 764.63 775.21 774.28 772.57 764.09 745.57 754 749.88"/><polygon class="cls-2" points="728 734.08 682.53 738.25 680.8 725.35 728.51 718.34 728 734.08"/><circle class="cls-3" cx="539.42" cy="538.14" r="13"/><path class="cls-2" d="M517.48,531.23a23.29,23.29,0,1,0,29.26-15.12A23.29,23.29,0,0,0,517.48,531.23Zm34.32,10.85a13,13,0,1,1-8.44-16.33A13,13,0,0,1,551.8,542.08Z"/><circle class="cls-3" cx="539.42" cy="538.14" r="13"/><circle class="cls-3" cx="620.48" cy="505.78" r="13"/><path class="cls-2" d="M598.54,498.88a23.29,23.29,0,1,0,29.26-15.13A23.3,23.3,0,0,0,598.54,498.88Zm34.32,10.85a13,13,0,1,1-8.44-16.34A13,13,0,0,1,632.86,509.73Z"/><circle class="cls-3" cx="620.48" cy="505.78" r="13"/><circle class="cls-3" cx="688.22" cy="585.26" r="13"/><path class="cls-2" d="M666.28,578.35a23.29,23.29,0,1,0,29.26-15.12A23.29,23.29,0,0,0,666.28,578.35Zm34.33,10.85a13,13,0,1,1-8.45-16.33A13,13,0,0,1,700.61,589.2Z"/><circle class="cls-3" cx="688.22" cy="585.26" r="13"/><circle class="cls-3" cx="742.77" cy="514.06" r="13"/><path class="cls-2" d="M720.83,507.15A23.29,23.29,0,1,0,750.09,492,23.29,23.29,0,0,0,720.83,507.15ZM755.15,518a13,13,0,1,1-8.44-16.33A13,13,0,0,1,755.15,518Z"/><circle class="cls-3" cx="742.77" cy="514.06" r="13"/><polygon class="cls-2" points="562.7 534.81 601.38 518.91 596.9 504 557.24 523.01 562.7 534.81"/><polygon class="cls-2" points="629.98 527.31 668.17 573.99 674.08 567.11 638.63 520.85 629.98 527.31"/><polygon class="cls-2" points="695.54 563.23 721.59 523.32 733.75 535.59 706.5 570.69 695.54 563.23"/><path class="cls-2" d="M369,920.15a23.29,23.29,0,1,0,5.74,32.43A23.29,23.29,0,0,0,369,920.15ZM348.46,949.7a13,13,0,1,1,18.1-3.21A13,13,0,0,1,348.46,949.7Z"/><path class="cls-2" d="M342,1002.27a23.29,23.29,0,1,0,5.74,32.43A23.3,23.3,0,0,0,342,1002.27Zm-20.56,29.55a13,13,0,1,1,18.1-3.21A13,13,0,0,1,321.41,1031.82Z"/><path class="cls-2" d="M278.64,1005.58a23.31,23.31,0,1,0,8.76,11.76A23.29,23.29,0,0,0,278.64,1005.58Zm-20.56,29.55a13,13,0,1,1,18.1-3.2A13,13,0,0,1,258.08,1035.13Z"/><polygon class="cls-2" points="306.16 1015.18 305.84 1026.14 288.54 1025.97 287.4 1017.34 306.16 1015.18"/><polygon class="cls-2" points="331.71 998.27 343.63 959.24 356.72 962.5 345.88 1005.72 331.71 998.27"/><path class="cls-2" d="M482,920.62a23.28,23.28,0,1,0,8.76,11.75A23.29,23.29,0,0,0,482,920.62Zm-20.56,29.55a13,13,0,1,1,18.1-3.21A13,13,0,0,1,461.48,950.17Z"/><path class="cls-2" d="M525.11,996.47a23.27,23.27,0,1,0,8.77,11.75A23.29,23.29,0,0,0,525.11,996.47ZM504.55,1026a13,13,0,1,1,18.11-3.2A13,13,0,0,1,504.55,1026Z"/><path class="cls-2" d="M470.17,1045.39a23.29,23.29,0,1,0,8.76,11.75A23.29,23.29,0,0,0,470.17,1045.39Zm-20.56,29.55a13,13,0,1,1,18.1-3.21A13,13,0,0,1,449.61,1074.94Z"/><polygon class="cls-2" points="477.25 1053.27 499.74 1035.57 492.28 1028.31 472.77 1047.2 477.25 1053.27"/><polygon class="cls-2" points="475.69 961.92 495.77 997.8 510.63 992.3 486.13 955.41 475.69 961.92"/><path class="cls-2" d="M201.36,818.08a23.28,23.28,0,1,0,8.76,11.75A23.29,23.29,0,0,0,201.36,818.08ZM180.8,847.63a13,13,0,1,1,18.1-3.21A13,13,0,0,1,180.8,847.63Z"/><path class="cls-2" d="M192.81,903.61a23.3,23.3,0,1,0,8.76,11.76A23.3,23.3,0,0,0,192.81,903.61Zm-20.56,29.55a13,13,0,1,1,18.1-3.2A13,13,0,0,1,172.25,933.16Z"/><path class="cls-2" d="M108,923.65a23.3,23.3,0,1,0,8.76,11.76A23.3,23.3,0,0,0,108,923.65ZM87.47,953.21a13,13,0,1,1,18.1-3.21A13,13,0,0,1,87.47,953.21Z"/><path class="cls-2" d="M161.25,1001.12a23.28,23.28,0,1,0,8.76,11.75A23.25,23.25,0,0,0,161.25,1001.12Zm-20.56,29.55a13,13,0,1,1,18.1-3.2A13,13,0,0,1,140.69,1030.67Z"/><polygon class="cls-2" points="113.78 956.09 145.42 997.05 130.46 1004.78 102.81 964.57 113.78 956.09"/><polygon class="cls-2" points="117.33 948.18 158.16 932.11 156.19 921.94 116.79 935.41 117.33 948.18"/><polygon class="cls-2" points="176.36 899.62 180.6 859.25 193.58 859.78 192.81 903.61 176.36 899.62"/><path class="cls-2" d="M571.33,749.69a23.28,23.28,0,1,0,8.76,11.75A23.25,23.25,0,0,0,571.33,749.69Zm-20.56,29.55a13,13,0,1,1,18.1-3.2A13,13,0,0,1,550.77,779.24Z"/><path class="cls-2" d="M554.73,810.08a23.29,23.29,0,1,0,8.76,11.75A23.17,23.17,0,0,0,554.73,810.08Zm-20.56,29.55a13,13,0,1,1,18.11-3.21A13,13,0,0,1,534.17,839.63Z"/><path class="cls-2" d="M477.64,808.65a23.29,23.29,0,1,0,8.76,11.75A23.22,23.22,0,0,0,477.64,808.65ZM457.08,838.2a13,13,0,1,1,18.11-3.2A13,13,0,0,1,457.08,838.2Z"/><polygon class="cls-2" points="519.06 835.75 486.71 834.07 487.47 825.4 518.4 825.4 519.06 835.75"/><polygon class="cls-2" points="541.9 805.88 547.61 789.64 560.19 791.96 557.11 811.98 541.9 805.88"/><path class="cls-2" d="M219.57,641.17a23.29,23.29,0,1,0,8.76,11.75A23.22,23.22,0,0,0,219.57,641.17ZM199,670.72a13,13,0,1,1,18.1-3.2A13,13,0,0,1,199,670.72Z"/><path class="cls-2" d="M200.13,730.07a23.28,23.28,0,1,0,8.76,11.75A23.25,23.25,0,0,0,200.13,730.07Zm-20.56,29.55a13,13,0,1,1,18.1-3.2A13,13,0,0,1,179.57,759.62Z"/><path class="cls-2" d="M126.81,733.72a23.28,23.28,0,1,0,8.76,11.75A23.25,23.25,0,0,0,126.81,733.72Zm-20.56,29.55a13,13,0,1,1,18.1-3.2A13,13,0,0,1,106.25,763.27Z"/><polygon class="cls-2" points="163.71 746 136.37 748.62 136.03 758.62 164.83 756.92 163.71 746"/><polygon class="cls-2" points="186.53 725.87 196.06 681.22 208.89 683.4 201.41 731.04 186.53 725.87"/><circle class="cls-3" cx="429.67" cy="604.04" r="13"/><path class="cls-2" d="M442.78,585.15a23.29,23.29,0,1,0,5.75,32.43A23.29,23.29,0,0,0,442.78,585.15ZM422.22,614.7a13,13,0,1,1,18.1-3.21A13,13,0,0,1,422.22,614.7Z"/><circle class="cls-3" cx="429.67" cy="604.04" r="13"/><circle class="cls-3" cx="436.47" cy="691.06" r="13"/><path class="cls-2" d="M449.58,672.16a23.29,23.29,0,1,0,5.75,32.44A23.29,23.29,0,0,0,449.58,672.16ZM429,701.71a13,13,0,1,1,18.11-3.2A13,13,0,0,1,429,701.71Z"/><circle class="cls-3" cx="436.47" cy="691.06" r="13"/><circle class="cls-3" cx="340.45" cy="732.12" r="13"/><path class="cls-2" d="M353.56,713.22a23.29,23.29,0,1,0,5.75,32.43A23.29,23.29,0,0,0,353.56,713.22ZM333,742.77a13,13,0,1,1,18.11-3.2A13,13,0,0,1,333,742.77Z"/><circle class="cls-3" cx="340.45" cy="732.12" r="13"/><circle class="cls-3" cx="392.22" cy="805.36" r="13"/><path class="cls-2" d="M405.33,786.46a23.29,23.29,0,1,0,5.75,32.44A23.3,23.3,0,0,0,405.33,786.46ZM384.77,816a13,13,0,1,1,18.11-3.2A13,13,0,0,1,384.77,816Z"/><circle class="cls-3" cx="392.22" cy="805.36" r="13"/><polygon class="cls-2" points="425.92 627.26 429.61 668.93 445.17 669.08 438.81 625.56 425.92 627.26"/><polygon class="cls-2" points="413.09 693.73 357.17 716.33 361.98 724.01 416.69 703.92 413.09 693.73"/><polygon class="cls-2" points="359.31 745.65 389.67 782.39 374.34 790.36 348.93 753.91 359.31 745.65"/><path class="cls-2" d="M1268.39,689.3a23.29,23.29,0,1,0-7.67-32A23.3,23.3,0,0,0,1268.39,689.3Zm18.76-30.73a13,13,0,1,1-17.88,4.28A13,13,0,0,1,1287.15,658.57Z"/><path class="cls-2" d="M1290.49,605.71a23.29,23.29,0,1,0-7.67-32A23.29,23.29,0,0,0,1290.49,605.71ZM1309.25,575a13,13,0,1,1-17.88,4.28A13,13,0,0,1,1309.25,575Z"/><path class="cls-2" d="M1353.51,598.62a23.28,23.28,0,1,0-9.45-11.21A23.29,23.29,0,0,0,1353.51,598.62Zm18.76-30.72a13,13,0,1,1-17.88,4.28A13,13,0,0,1,1372.27,567.9Z"/><polygon class="cls-2" points="1325.46 590.68 1325.13 579.72 1342.4 578.86 1344.06 587.41 1325.46 590.68"/><polygon class="cls-2" points="1300.97 609.09 1291.4 648.77 1278.14 646.29 1286.38 602.5 1300.97 609.09"/><path class="cls-2" d="M1155.54,695.57a23.27,23.27,0,1,0-9.45-11.2A23.29,23.29,0,0,0,1155.54,695.57Zm18.76-30.72a13,13,0,1,1-17.88,4.28A13,13,0,0,1,1174.3,664.85Z"/><path class="cls-2" d="M1108,622.43a23.28,23.28,0,1,0-9.45-11.21A23.3,23.3,0,0,0,1108,622.43Zm18.76-30.73A13,13,0,1,1,1108.9,596,13,13,0,0,1,1126.78,591.7Z"/><path class="cls-2" d="M1159.94,570.32a23.31,23.31,0,1,0-9.44-11.21A23.3,23.3,0,0,0,1159.94,570.32Zm18.76-30.73a13,13,0,1,1-17.88,4.28A13,13,0,0,1,1178.7,539.59Z"/><path class="cls-2" d="M1157.33,482.69a23.3,23.3,0,1,0-9.44-11.21A23.31,23.31,0,0,0,1157.33,482.69ZM1176.1,452a13,13,0,1,1-17.88,4.28A13,13,0,0,1,1176.1,452Z"/><polygon class="cls-2" points="1176.39 527.57 1174.85 485.5 1159.82 484 1163.61 528.79 1176.39 527.57"/><polygon class="cls-2" points="1152.41 562.87 1131.01 581.89 1138.89 588.69 1157.24 568.66 1152.41 562.87"/><polygon class="cls-2" points="1159.42 653.97 1137.23 619.35 1122.72 625.72 1149.38 661.09 1159.42 653.97"/><path class="cls-2" d="M1441.84,781.18A23.31,23.31,0,1,0,1432.4,770,23.29,23.29,0,0,0,1441.84,781.18Zm18.76-30.73a13,13,0,1,1-17.88,4.29A13,13,0,0,1,1460.6,750.45Z"/><path class="cls-2" d="M1445.27,695.29a23.31,23.31,0,1,0-9.44-11.21A23.3,23.3,0,0,0,1445.27,695.29ZM1464,664.56a13,13,0,1,1-17.88,4.28A13,13,0,0,1,1464,664.56Z"/><path class="cls-2" d="M1528.7,670.22a23.3,23.3,0,1,0-9.44-11.2A23.28,23.28,0,0,0,1528.7,670.22Zm18.76-30.72a13,13,0,1,1-17.88,4.28A13,13,0,0,1,1547.46,639.5Z"/><path class="cls-2" d="M1471,596.07a23.28,23.28,0,1,0-9.45-11.21A23.22,23.22,0,0,0,1471,596.07Zm18.76-30.72a13,13,0,1,1-17.88,4.28A13,13,0,0,1,1489.72,565.35Z"/><polygon class="cls-2" points="1521.03 638.19 1487 599.19 1501.47 590.59 1531.47 629.07 1521.03 638.19"/><polygon class="cls-2" points="1517.95 646.3 1478.16 664.77 1480.73 674.81 1519.26 659.01 1517.95 646.3"/><polygon class="cls-2" points="1461.92 698.29 1460.1 738.85 1447.12 739.09 1445.27 695.29 1461.92 698.29"/><path class="cls-2" d="M1076.61,871.52a23.3,23.3,0,1,0-9.44-11.2A23.18,23.18,0,0,0,1076.61,871.52Zm18.76-30.72a13,13,0,1,1-17.88,4.28A13,13,0,0,1,1095.37,840.8Z"/><path class="cls-2" d="M1089.57,810.25a23.3,23.3,0,1,0-9.44-11.2A23.18,23.18,0,0,0,1089.57,810.25Zm18.76-30.72a13,13,0,1,1-17.88,4.28A13,13,0,0,1,1108.33,779.53Z"/><path class="cls-2" d="M1166.61,807.08a23.31,23.31,0,1,0-9.44-11.21A23.17,23.17,0,0,0,1166.61,807.08Zm18.76-30.73a13,13,0,1,1-17.88,4.28A13,13,0,0,1,1185.37,776.35Z"/><polygon class="cls-2" points="1123.66 782.5 1156.04 782.25 1155.81 790.95 1124.92 792.79 1123.66 782.5"/><polygon class="cls-2" points="1102.63 813.68 1097.9 830.23 1085.2 828.66 1087.09 808.5 1102.63 813.68"/><path class="cls-2" d="M1434.22,958.86a23.28,23.28,0,1,0-9.45-11.21A23.22,23.22,0,0,0,1434.22,958.86ZM1453,928.13a13,13,0,1,1-17.88,4.28A13,13,0,0,1,1453,928.13Z"/><path class="cls-2" d="M1448.32,869a23.28,23.28,0,1,0-9.45-11.21A23.16,23.16,0,0,0,1448.32,869Zm18.76-30.73a13,13,0,1,1-17.88,4.28A13,13,0,0,1,1467.08,838.23Z"/><path class="cls-2" d="M1521.29,860.94a23.28,23.28,0,1,0-9.45-11.21A23.23,23.23,0,0,0,1521.29,860.94Zm18.76-30.73a13,13,0,1,1-17.88,4.29A13,13,0,0,1,1540.05,830.21Z"/><polygon class="cls-2" points="1483.72 850.89 1510.86 846.63 1510.61 836.63 1481.95 840.05 1483.72 850.89"/><polygon class="cls-2" points="1462.14 872.34 1455.3 917.48 1442.36 916.07 1446.98 868.07 1462.14 872.34"/><circle class="cls-3" cx="1226.71" cy="1008.46" r="13"/><path class="cls-2" d="M1214.75,1028.1a23.29,23.29,0,1,0-7.67-32A23.28,23.28,0,0,0,1214.75,1028.1Zm18.76-30.72a13,13,0,1,1-17.88,4.28A13,13,0,0,1,1233.51,997.38Z"/><circle class="cls-3" cx="1226.71" cy="1008.46" r="13"/><circle class="cls-3" cx="1214.73" cy="922" r="13"/><path class="cls-2" d="M1202.77,941.65a23.29,23.29,0,1,0-7.67-32A23.29,23.29,0,0,0,1202.77,941.65Zm18.76-30.73a13,13,0,1,1-17.88,4.28A13,13,0,0,1,1221.53,910.92Z"/><circle class="cls-3" cx="1214.73" cy="922" r="13"/><circle class="cls-3" cx="1308.13" cy="875.29" r="13"/><path class="cls-2" d="M1296.16,894.93a23.29,23.29,0,1,0-7.66-32A23.3,23.3,0,0,0,1296.16,894.93Zm18.77-30.72a13,13,0,1,1-17.88,4.28A13,13,0,0,1,1314.93,864.21Z"/><circle class="cls-3" cx="1308.13" cy="875.29" r="13"/><circle class="cls-3" cx="1252.08" cy="805.27" r="13"/><path class="cls-2" d="M1240.12,824.91a23.29,23.29,0,1,0-7.67-32A23.29,23.29,0,0,0,1240.12,824.91Zm18.76-30.72a13,13,0,1,1-17.88,4.28A13,13,0,0,1,1258.88,794.19Z"/><circle class="cls-3" cx="1252.08" cy="805.27" r="13"/><polygon class="cls-2" points="1229.07 985.06 1222.89 943.69 1207.35 944.46 1216.3 987.53 1229.07 985.06"/><polygon class="cls-2" points="1237.91 917.94 1292.38 892.05 1287.12 884.67 1233.71 907.99 1237.91 917.94"/><polygon class="cls-2" points="1288.5 862.9 1256 828.05 1270.83 819.18 1298.36 854.05 1288.5 862.9"/><path class="cls-2" d="M1251.45,91.36A23.29,23.29,0,1,0,1229.24,67,23.29,23.29,0,0,0,1251.45,91.36Zm1.55-36a13,13,0,1,1-13.58,12.39A13,13,0,0,1,1253,55.4Z"/><path class="cls-2" d="M1230.34,7.52a23.29,23.29,0,0,0,24.32-22.21A23.29,23.29,0,0,0,1232.45-39a23.29,23.29,0,0,0-24.32,22.21A23.29,23.29,0,0,0,1230.34,7.52Zm1.55-36a13,13,0,0,1,12.4,13.58,13,13,0,0,1-13.57,12.4A13,13,0,0,1,1218.32-16,13,13,0,0,1,1231.89-28.45Z"/><polygon class="cls-2" points="1241.15 5.4 1251.97 44.76 1239.17 49.01 1225.19 6.7 1241.15 5.4"/><path class="cls-2" d="M1155.74,151.47a23.29,23.29,0,1,0-13.69-5.24A23.29,23.29,0,0,0,1155.74,151.47Zm1.55-36a13,13,0,1,1-13.58,12.4A13,13,0,0,1,1157.29,115.5Z"/><path class="cls-2" d="M1078.75,110.46a23.29,23.29,0,1,0-13.69-5.24A23.3,23.3,0,0,0,1078.75,110.46Zm1.55-36a13,13,0,1,1-13.58,12.4A13,13,0,0,1,1080.3,74.49Z"/><path class="cls-2" d="M1099,39.73a23.29,23.29,0,1,0-13.69-5.24A23.3,23.3,0,0,0,1099,39.73Zm1.55-36a13,13,0,1,1-13.58,12.4A13,13,0,0,1,1100.52,3.76Z"/><polygon class="cls-2" points="1092.68 -5.64 1070.97 -41.71 1057.09 -35.74 1082.08 1.62 1092.68 -5.64"/><polygon class="cls-2" points="1088.78 36.85 1079.26 63.85 1089.44 65.99 1095.8 39.58 1088.78 36.85"/><polygon class="cls-2" points="1139 113.18 1102.83 93.63 1093.21 106.23 1133.66 124.27 1139 113.18"/><path class="cls-2" d="M1447.71,87.82A23.29,23.29,0,1,0,1434,82.59,23.29,23.29,0,0,0,1447.71,87.82Zm1.55-36a13,13,0,1,1-13.58,12.39A13,13,0,0,1,1449.26,51.86Z"/><path class="cls-2" d="M1409.14,11a23.29,23.29,0,0,0,24.32-22.21,23.29,23.29,0,0,0-22.21-24.32,23.29,23.29,0,0,0-24.32,22.21,23.24,23.24,0,0,0,8.52,19.08A23.22,23.22,0,0,0,1409.14,11Zm1.55-36a13,13,0,0,1,12.4,13.58A13,13,0,0,1,1409.51,1a13,13,0,0,1-12.4-13.58A13,13,0,0,1,1410.69-25Z"/><polygon class="cls-2" points="1425.17 5.57 1443.2 41.94 1431.96 48.44 1409.14 11 1425.17 5.57"/><path class="cls-2" d="M1171.82,343.64a23.29,23.29,0,1,0-13.69-5.24A23.25,23.25,0,0,0,1171.82,343.64Zm1.55-36a13,13,0,1,1-13.57,12.4A13,13,0,0,1,1173.37,307.67Z"/><path class="cls-2" d="M1153.51,283.75a23.29,23.29,0,1,0-13.69-5.24A23.25,23.25,0,0,0,1153.51,283.75Zm1.55-36a13,13,0,1,1-13.58,12.4A13,13,0,0,1,1155.06,247.78Z"/><path class="cls-2" d="M1219.39,243.69a23.29,23.29,0,1,0-13.69-5.24A23.25,23.25,0,0,0,1219.39,243.69Zm1.55-36a13,13,0,1,1-13.58,12.4A13,13,0,0,1,1220.94,207.72Z"/><polygon class="cls-2" points="1169.9 242.97 1198.12 227.07 1202.13 234.8 1176 251.36 1169.9 242.97"/><polygon class="cls-2" points="1166.6 280.43 1170.47 297.2 1158.6 301.97 1150.49 283.41 1166.6 280.43"/><path class="cls-2" d="M1527,247a23.29,23.29,0,1,0-13.69-5.24A23.25,23.25,0,0,0,1527,247Zm1.55-36a13,13,0,1,1-13.57,12.4A13,13,0,0,1,1528.57,211Z"/><path class="cls-2" d="M1495.86,161.5a23.29,23.29,0,1,0-13.69-5.23A23.16,23.16,0,0,0,1495.86,161.5Zm1.55-36a13,13,0,1,1-13.58,12.39A13,13,0,0,1,1497.41,125.54Z"/><path class="cls-2" d="M1555.83,119.17a23.29,23.29,0,1,0-13.69-5.24A23.15,23.15,0,0,0,1555.83,119.17Zm1.55-36a13,13,0,1,1-13.57,12.4A13,13,0,0,1,1557.38,83.2Z"/><polygon class="cls-2" points="1518.09 128.55 1539.78 111.7 1534.72 103.07 1511.3 119.93 1518.09 128.55"/><polygon class="cls-2" points="1509.59 157.77 1525.45 200.59 1513.44 205.62 1494.26 161.37 1509.59 157.77"/><circle class="cls-3" cx="1369.44" cy="390.83" r="13"/><path class="cls-2" d="M1368.48,413.81a23.29,23.29,0,1,0-22.21-24.32A23.3,23.3,0,0,0,1368.48,413.81Zm1.55-36a13,13,0,1,1-13.58,12.4A13,13,0,0,1,1370,377.84Z"/><circle class="cls-3" cx="1369.44" cy="390.83" r="13"/><circle class="cls-3" cx="1317.12" cy="320.97" r="13"/><path class="cls-2" d="M1316.16,344a23.29,23.29,0,1,0-22.22-24.32A23.31,23.31,0,0,0,1316.16,344Zm1.54-36a13,13,0,1,1-13.57,12.4A13,13,0,0,1,1317.7,308Z"/><circle class="cls-3" cx="1317.12" cy="320.97" r="13"/><circle class="cls-3" cx="1376.24" cy="234.89" r="13"/><path class="cls-2" d="M1375.28,257.87a23.29,23.29,0,1,0-22.21-24.32A23.29,23.29,0,0,0,1375.28,257.87Zm1.55-36a13,13,0,1,1-13.58,12.4A13,13,0,0,1,1376.83,221.9Z"/><circle class="cls-3" cx="1376.24" cy="234.89" r="13"/><circle class="cls-3" cx="1293.3" cy="200.74" r="13"/><path class="cls-2" d="M1292.34,223.72a23.29,23.29,0,1,0-22.21-24.32A23.29,23.29,0,0,0,1292.34,223.72Zm1.55-36a13,13,0,1,1-13.57,12.4A13,13,0,0,1,1293.89,187.75Z"/><circle class="cls-3" cx="1293.3" cy="200.74" r="13"/><polygon class="cls-2" points="1360.18 369.21 1334.76 335.99 1321.53 344.19 1350.2 377.55 1360.18 369.21"/><polygon class="cls-2" points="1335.43 306.2 1370.57 257.18 1362.39 253.26 1326.94 299.52 1335.43 306.2"/><polygon class="cls-2" points="1353.07 233.55 1307.76 218.78 1316.44 203.84 1357.41 221.03 1353.07 233.55"/><path class="cls-2" d="M1895.63,305.63a23.29,23.29,0,1,0,29.82-14A23.29,23.29,0,0,0,1895.63,305.63Zm33.88,12.17a13,13,0,1,1-7.81-16.64A13,13,0,0,1,1929.51,317.8Z"/><path class="cls-2" d="M1866.68,196.38a23.3,23.3,0,1,0,9.07-11.51A23.31,23.31,0,0,0,1866.68,196.38Zm33.88,12.17a13,13,0,1,1-7.8-16.65A13,13,0,0,1,1900.56,208.55Z"/><polygon class="cls-2" points="1908.21 191.78 1937.63 163.05 1928.46 150.13 1899.22 183.38 1908.21 191.78"/><path class="cls-2" d="M1840.68,494.07a23.29,23.29,0,1,0,9.06-11.51A23.29,23.29,0,0,0,1840.68,494.07Zm33.88,12.17a13,13,0,1,1-7.81-16.64A13,13,0,0,1,1874.56,506.24Z"/><polygon class="cls-2" points="1925.91 497 1885.82 503.41 1882.96 490.74 1925.49 480.08 1925.91 497"/><path class="cls-2" d="M1678.42,154.62a23.3,23.3,0,1,0,9.07-11.51A23.24,23.24,0,0,0,1678.42,154.62Zm33.88,12.17a13,13,0,1,1-7.81-16.64A13,13,0,0,1,1712.3,166.79Z"/><path class="cls-2" d="M1741,154.94a23.3,23.3,0,1,0,9.07-11.51A23.19,23.19,0,0,0,1741,154.94Zm33.88,12.17a13,13,0,1,1-7.8-16.65A13,13,0,0,1,1774.92,167.11Z"/><path class="cls-2" d="M1759.71,229.75a23.28,23.28,0,1,0,9.07-11.52A23.24,23.24,0,0,0,1759.71,229.75Zm33.89,12.17a13,13,0,1,1-7.81-16.65A13,13,0,0,1,1793.6,241.92Z"/><polygon class="cls-2" points="1775.11 182.71 1781.9 214.38 1773.33 215.91 1765.28 186.04 1775.11 182.71"/><polygon class="cls-2" points="1740.33 168.42 1723.16 167.13 1722.13 154.38 1742.26 152.16 1740.33 168.42"/><path class="cls-2" d="M1665.12,522.5a23.28,23.28,0,1,0,9.07-11.52A23.19,23.19,0,0,0,1665.12,522.5ZM1699,534.66a13,13,0,1,1-7.8-16.64A13,13,0,0,1,1699,534.66Z"/><path class="cls-2" d="M1756,518.15a23.28,23.28,0,1,0,9.07-11.52A23.24,23.24,0,0,0,1756,518.15Zm33.89,12.17a13,13,0,1,1-7.81-16.65A13,13,0,0,1,1789.9,530.32Z"/><path class="cls-2" d="M1778.61,588a23.29,23.29,0,1,0,9.07-11.52A23.19,23.19,0,0,0,1778.61,588Zm33.88,12.16a13,13,0,1,1-7.8-16.64A13,13,0,0,1,1812.49,600.16Z"/><polygon class="cls-2" points="1780.87 549.17 1790.51 574.89 1800.26 572.62 1791.12 545.25 1780.87 549.17"/><polygon class="cls-2" points="1755.5 532.37 1709.9 534.79 1708.67 521.83 1756.61 516.66 1755.5 532.37"/><circle class="cls-3" cx="1574.62" cy="329.29" r="13"/><path class="cls-2" d="M1553,321.54a23.29,23.29,0,1,0,29.82-14A23.29,23.29,0,0,0,1553,321.54Zm33.88,12.17a13,13,0,1,1-7.8-16.65A13,13,0,0,1,1586.85,333.71Z"/><circle class="cls-3" cx="1574.62" cy="329.29" r="13"/><circle class="cls-3" cx="1656.88" cy="300.09" r="13"/><path class="cls-2" d="M1635.22,292.34a23.29,23.29,0,1,0,29.82-14A23.31,23.31,0,0,0,1635.22,292.34Zm33.88,12.17a13,13,0,1,1-7.8-16.65A13,13,0,0,1,1669.1,304.51Z"/><circle class="cls-3" cx="1656.88" cy="300.09" r="13"/><circle class="cls-3" cx="1721.49" cy="382.13" r="13"/><path class="cls-2" d="M1699.84,374.38a23.29,23.29,0,1,0,29.82-14A23.3,23.3,0,0,0,1699.84,374.38Zm33.88,12.17a13,13,0,1,1-7.8-16.65A13,13,0,0,1,1733.72,386.55Z"/><circle class="cls-3" cx="1721.49" cy="382.13" r="13"/><circle class="cls-3" cx="1778.75" cy="313.09" r="13"/><path class="cls-2" d="M1757.1,305.34a23.29,23.29,0,1,0,29.82-14A23.28,23.28,0,0,0,1757.1,305.34ZM1791,317.51a13,13,0,1,1-7.81-16.65A13,13,0,0,1,1791,317.51Z"/><circle class="cls-3" cx="1778.75" cy="313.09" r="13"/><polygon class="cls-2" points="1598.02 326.87 1637.29 312.47 1633.39 297.4 1593.02 314.86 1598.02 326.87"/><polygon class="cls-2" points="1665.54 321.97 1701.9 370.09 1708.07 363.45 1674.44 315.85 1665.54 321.97"/><polygon class="cls-2" points="1729.66 360.4 1757.23 321.53 1768.92 334.26 1740.33 368.27 1729.66 360.4"/><path class="cls-2" d="M768.9,7.71a23.29,23.29,0,1,0-8.67,31.77A23.29,23.29,0,0,0,768.9,7.71ZM737.68,25.63a13,13,0,1,1,17.74,4.84A13,13,0,0,1,737.68,25.63Z"/><path class="cls-2" d="M709.34,70.37a23.29,23.29,0,1,0-8.68,31.78A23.3,23.3,0,0,0,709.34,70.37ZM678.12,88.3a13,13,0,1,1,17.73,4.84A13,13,0,0,1,678.12,88.3Z"/><path class="cls-2" d="M650.67,46.3a23.27,23.27,0,1,0,2.9,14.37A23.29,23.29,0,0,0,650.67,46.3ZM619.45,64.22a13,13,0,1,1,17.74,4.84A13,13,0,0,1,619.45,64.22Z"/><polygon class="cls-2" points="671.45 66.74 666.47 76.51 650.91 68.97 653.57 60.67 671.45 66.74"/><polygon class="cls-2" points="701.77 62.38 729.24 32.19 739.67 40.73 711.4 75.17 701.77 62.38"/><path class="cls-2" d="M870.87,56.45a23.29,23.29,0,1,0,2.9,14.37A23.28,23.28,0,0,0,870.87,56.45ZM839.65,74.37a13,13,0,1,1,17.74,4.85A13,13,0,0,1,839.65,74.37Z"/><path class="cls-2" d="M877.38,143.44a23.3,23.3,0,1,0,2.89,14.37A23.28,23.28,0,0,0,877.38,143.44Zm-31.22,17.92a13,13,0,1,1,17.73,4.84A13,13,0,0,1,846.16,161.36Z"/><path class="cls-2" d="M806.8,164.17a23.29,23.29,0,1,0,2.89,14.37A23.29,23.29,0,0,0,806.8,164.17Zm-31.22,17.92a13,13,0,1,1,17.73,4.84A13,13,0,0,1,775.58,182.09Z"/><path class="cls-2" d="M767,242.27a23.29,23.29,0,1,0,2.89,14.36A23.3,23.3,0,0,0,767,242.27Zm-31.23,17.92A13,13,0,1,1,753.47,265,13,13,0,0,1,735.73,260.19Z"/><polygon class="cls-2" points="771.82 193.74 752.95 231.38 765.41 239.91 783.62 198.82 771.82 193.74"/><polygon class="cls-2" points="809.82 174.32 837.73 167.93 834.09 158.18 808.37 166.92 809.82 174.32"/><polygon class="cls-2" points="847.47 91.07 850.29 132.09 866.07 133.48 859.69 89.66 847.47 91.07"/><path class="cls-2" d="M546.46-7.93a23.3,23.3,0,0,0-31.78-8.67,23.28,23.28,0,1,0,31.78,8.67ZM515.24,10A13,13,0,1,1,533,14.84,13,13,0,0,1,515.24,10Z"/><path class="cls-2" d="M983.85-12.39a23.2,23.2,0,0,0-12.57-10.45,23.26,23.26,0,0,0-19.21,1.77,23.29,23.29,0,0,0-8.67,31.78,23.29,23.29,0,0,0,31.77,8.67A23.24,23.24,0,0,0,986.74,2,23.2,23.2,0,0,0,983.85-12.39ZM952.62,5.53a13,13,0,0,1,4.85-17.74A13,13,0,0,1,975.2-7.37a13,13,0,0,1-4.84,17.74A13,13,0,0,1,952.62,5.53Z"/><path class="cls-2" d="M932,1013a23.3,23.3,0,1,0,13.28-6.2A23.3,23.3,0,0,0,932,1013Zm24.78,26.11a13,13,0,1,1,.52-18.38A13,13,0,0,1,956.77,1039.08Z"/><path class="cls-2" d="M1015,986.11a23.27,23.27,0,1,0,13.28-6.21A23.29,23.29,0,0,0,1015,986.11Zm24.79,26.11a13,13,0,1,1,.51-18.38A13,13,0,0,1,1039.77,1012.22Z"/><path class="cls-2" d="M1051.79,1049.8a23.27,23.27,0,1,0,13.28-6.21A23.29,23.29,0,0,0,1051.79,1049.8Zm24.79,26.11a13,13,0,1,1,.51-18.38A13,13,0,0,1,1076.58,1075.91Z"/><path class="cls-2" d="M1137.08,1070.08a23.29,23.29,0,1,0,13.28-6.21A23.29,23.29,0,0,0,1137.08,1070.08Zm24.79,26.1a13,13,0,1,1,.52-18.38A13,13,0,0,1,1161.87,1096.18Z"/><polygon class="cls-2" points="1088.78 1076.81 1129.81 1086.26 1135.16 1072.13 1090.93 1064.14 1088.78 1076.81"/><polygon class="cls-2" points="1060.94 1044.46 1048.14 1018.86 1039.53 1024.7 1054.09 1047.62 1060.94 1044.46"/><polygon class="cls-2" points="971.15 1027.54 1010.35 1015.12 1007.97 999.45 966.89 1016 971.15 1027.54"/><path class="cls-2" d="M782.62,891a23.27,23.27,0,1,0,13.28-6.21A23.16,23.16,0,0,0,782.62,891Zm24.79,26.11a13,13,0,1,1,.52-18.38A13,13,0,0,1,807.41,917.11Z"/><path class="cls-2" d="M838.41,919.45a23.27,23.27,0,1,0,13.28-6.21A23.16,23.16,0,0,0,838.41,919.45Zm24.79,26.11a13,13,0,1,1,.52-18.38A13,13,0,0,1,863.2,945.56Z"/><path class="cls-2" d="M821.44,994.66a23.3,23.3,0,1,0,13.28-6.2A23.21,23.21,0,0,0,821.44,994.66Zm24.79,26.11a13,13,0,1,1,.52-18.38A13,13,0,0,1,846.23,1020.77Z"/><polygon class="cls-2" points="856.35 959.58 848.16 990.91 839.83 988.42 846.07 958.13 856.35 959.58"/><polygon class="cls-2" points="831.71 931.17 816.95 922.29 821.77 910.44 840.75 917.51 831.71 931.17"/><circle class="cls-3" cx="611.36" cy="1000.32" r="13"/><path class="cls-2" d="M595.5,983.66a23.29,23.29,0,1,0,32.93.92A23.29,23.29,0,0,0,595.5,983.66Zm24.79,26.1a13,13,0,1,1,.52-18.37A13,13,0,0,1,620.29,1009.76Z"/><circle class="cls-3" cx="611.36" cy="1000.32" r="13"/><circle class="cls-3" cx="697.96" cy="1011.23" r="13"/><path class="cls-2" d="M682.1,994.57a23.29,23.29,0,1,0,32.92.93A23.3,23.3,0,0,0,682.1,994.57Zm24.79,26.11a13,13,0,1,1,.51-18.38A13,13,0,0,1,706.89,1020.68Z"/><circle class="cls-3" cx="697.96" cy="1011.23" r="13"/><circle class="cls-3" cx="800.96" cy="1077.66" r="13"/><path class="cls-2" d="M785.1,1061a23.29,23.29,0,1,0,32.93.93A23.29,23.29,0,0,0,785.1,1061Zm24.79,26.11a13,13,0,1,1,.52-18.38A13,13,0,0,1,809.89,1087.11Z"/><circle class="cls-3" cx="800.96" cy="1077.66" r="13"/><polygon class="cls-2" points="633.34 1008.68 674.89 1013.48 678.19 998.27 634.28 995.71 633.34 1008.68"/><polygon class="cls-2" points="695.85 1034.67 706.68 1094.01 715.18 1090.84 706.55 1033.2 695.85 1034.67"/><polygon class="cls-2" points="735.84 1097.83 777.95 1075.52 782.65 1092.14 741.82 1109.66 735.84 1097.83"/><path class="cls-2" d="M1885,895.09A23.29,23.29,0,1,0,1914.27,880,23.29,23.29,0,0,0,1885,895.09Zm34.33,10.85a13,13,0,1,1-8.45-16.33A13,13,0,0,1,1919.34,905.94Z"/><path class="cls-2" d="M1851.86,787a23.28,23.28,0,1,0,8.62-11.86A23.29,23.29,0,0,0,1851.86,787Zm34.33,10.85a13,13,0,1,1-8.44-16.33A13,13,0,0,1,1886.19,797.89Z"/><path class="cls-2" d="M1911.49,723.37a23.28,23.28,0,1,0,8.62-11.86A23.3,23.3,0,0,0,1911.49,723.37Zm34.32,10.85a13,13,0,1,1-8.44-16.33A13,13,0,0,1,1945.81,734.22Z"/><polygon class="cls-2" points="1893.18 780.84 1921.48 750.99 1911.81 738.44 1883.87 772.79 1893.18 780.84"/><path class="cls-2" d="M1837.38,1085.52a23.3,23.3,0,1,0,8.62-11.86A23.3,23.3,0,0,0,1837.38,1085.52Zm34.33,10.84a13,13,0,1,1-8.44-16.33A13,13,0,0,1,1871.71,1096.36Z"/><path class="cls-2" d="M1921.59,1068.26a23.3,23.3,0,1,0,8.62-11.86A23.3,23.3,0,0,0,1921.59,1068.26Zm34.33,10.85a13,13,0,1,1-8.44-16.34A13,13,0,0,1,1955.92,1079.11Z"/><polygon class="cls-2" points="1922.67 1085.14 1882.86 1093.1 1879.51 1080.55 1921.59 1068.26 1922.67 1085.14"/><path class="cls-2" d="M1662.13,752.59a23.26,23.26,0,1,0,8.61-11.86A23.13,23.13,0,0,0,1662.13,752.59Zm34.32,10.85a13,13,0,1,1-8.44-16.33A13,13,0,0,1,1696.45,763.44Z"/><path class="cls-2" d="M1724.72,750.49a23.28,23.28,0,1,0,8.61-11.86A23.19,23.19,0,0,0,1724.72,750.49ZM1759,761.34A13,13,0,1,1,1750.6,745,13,13,0,0,1,1759,761.34Z"/><path class="cls-2" d="M1746.27,824.52a23.28,23.28,0,1,0,8.61-11.86A23.19,23.19,0,0,0,1746.27,824.52Zm34.32,10.85a13,13,0,1,1-8.44-16.34A13,13,0,0,1,1780.59,835.37Z"/><polygon class="cls-2" points="1759.83 776.92 1767.84 808.3 1759.34 810.16 1750.14 780.62 1759.83 776.92"/><polygon class="cls-2" points="1724.52 763.98 1707.31 763.36 1705.8 750.66 1725.83 747.66 1724.52 763.98"/><circle class="cls-3" cx="1565.16" cy="931.14" r="13"/><path class="cls-2" d="M1543.22,924.23a23.29,23.29,0,1,0,29.26-15.12A23.29,23.29,0,0,0,1543.22,924.23Zm34.33,10.85a13,13,0,1,1-8.44-16.33A13,13,0,0,1,1577.55,935.08Z"/><circle class="cls-3" cx="1565.16" cy="931.14" r="13"/><circle class="cls-3" cx="1646.22" cy="898.78" r="13"/><path class="cls-2" d="M1624.28,891.88a23.29,23.29,0,1,0,29.26-15.13A23.3,23.3,0,0,0,1624.28,891.88Zm34.33,10.85a13,13,0,1,1-8.44-16.34A13,13,0,0,1,1658.61,902.73Z"/><circle class="cls-3" cx="1646.22" cy="898.78" r="13"/><circle class="cls-3" cx="1713.96" cy="978.26" r="13"/><path class="cls-2" d="M1692,971.35a23.29,23.29,0,1,0,29.26-15.12A23.3,23.3,0,0,0,1692,971.35Zm34.33,10.85a13,13,0,1,1-8.44-16.33A13,13,0,0,1,1726.35,982.2Z"/><circle class="cls-3" cx="1713.96" cy="978.26" r="13"/><circle class="cls-3" cx="1768.51" cy="907.06" r="13"/><path class="cls-2" d="M1746.57,900.15A23.29,23.29,0,1,0,1775.83,885,23.29,23.29,0,0,0,1746.57,900.15ZM1780.9,911a13,13,0,1,1-8.44-16.33A13,13,0,0,1,1780.9,911Z"/><circle class="cls-3" cx="1768.51" cy="907.06" r="13"/><polygon class="cls-2" points="1588.44 927.81 1627.13 911.91 1622.65 897 1582.99 916.01 1588.44 927.81"/><polygon class="cls-2" points="1655.73 920.31 1693.92 966.99 1699.82 960.11 1664.38 913.85 1655.73 920.31"/><polygon class="cls-2" points="1721.28 956.23 1747.33 916.32 1759.5 928.59 1732.25 963.69 1721.28 956.23"/><path class="cls-2" d="M-17.91,691.4a23.29,23.29,0,1,0,29.82-14A23.28,23.28,0,0,0-17.91,691.4ZM16,703.57a13,13,0,1,1-7.81-16.65A13,13,0,0,1,16,703.57Z"/><path class="cls-2" d="M1.76,751.68a23.3,23.3,0,1,0,9.07-11.51A23.3,23.3,0,0,0,1.76,751.68Zm33.88,12.17a13,13,0,1,1-7.8-16.65A13,13,0,0,1,35.64,763.85Z"/><polygon class="cls-2" points="3.87 722.61 14.54 720.08 18.87 736.82 10.83 740.17 3.87 722.61"/><path class="cls-2" d="M-9.62,556.39A23.3,23.3,0,1,0-.55,544.88,23.12,23.12,0,0,0-9.62,556.39Zm33.88,12.17a13,13,0,1,1-7.8-16.65A13,13,0,0,1,24.26,568.56Z"/><path class="cls-2" d="M75.68,536.14a23.29,23.29,0,1,0,9.07-11.52A23.29,23.29,0,0,0,75.68,536.14Zm33.88,12.16a13,13,0,1,1-7.8-16.64A13,13,0,0,1,109.56,548.3Z"/><polygon class="cls-2" points="35.57 563.87 76.46 553.86 74.89 538.84 31.79 551.59 35.57 563.87"/><path class="cls-2" d="M-33,937.73a23.3,23.3,0,0,0,14,29.82,23.29,23.29,0,0,0,29.83-14,23.29,23.29,0,0,0-14-29.82,23.25,23.25,0,0,0-20.75,2.47A23.23,23.23,0,0,0-33,937.73ZM.9,949.9a13,13,0,0,1-16.64,7.8,13,13,0,0,1-7.81-16.64A13,13,0,0,1-6.9,933.25,13,13,0,0,1,.9,949.9Z"/><path class="cls-2" d="M28,866.2a23.28,23.28,0,1,0,9.07-11.52A23.19,23.19,0,0,0,28,866.2Zm33.88,12.17a13,13,0,1,1-7.8-16.65A13,13,0,0,1,61.86,878.37Z"/><polygon class="cls-2" points="-3.15 923.75 28.17 882.54 39.52 894.98 7.88 932.13 -3.15 923.75"/></g></svg>